<svg width="23" height="23" viewBox="0 0 23 23" fill="none" xmlns="http://www.w3.org/2000/svg">
<path d="M2.22375 2.22327L1.87026 1.86965L1.87026 1.86965L2.22375 2.22327ZM8.13253 2.22327L8.48601 1.86965L8.13253 2.22327ZM8.13253 8.12974L7.77904 7.77612L7.77904 7.77612L8.13253 8.12974ZM15.3075 15.3019L14.954 14.9483L14.954 14.9483L15.3075 15.3019ZM21.2163 21.2084L20.8628 20.8547L20.8628 20.8547L21.2163 21.2084ZM6.4443 16.9895L6.09082 17.3431L6.4443 16.9895ZM1.02212 5.60703L1.52211 5.60419C1.52202 5.58802 1.52115 5.57186 1.51949 5.55577L1.02212 5.60703ZM17.8312 22.4095L17.8824 21.9121C17.8663 21.9105 17.8502 21.9096 17.834 21.9095L17.8312 22.4095ZM5.84138 9.30036L5.76245 8.80663C5.60251 8.8322 5.46486 8.93367 5.39311 9.07889C5.32136 9.2241 5.3244 9.39508 5.40128 9.53766L5.84138 9.30036ZM14.1364 17.5921L13.8992 18.0323C14.0418 18.1091 14.2127 18.1121 14.3579 18.0404C14.5031 17.9686 14.6045 17.831 14.6301 17.6711L14.1364 17.5921ZM2.57723 2.57689C4.01365 1.14104 6.34262 1.14104 7.77904 2.57689L8.48601 1.86965C6.6591 0.0434506 3.69717 0.0434506 1.87026 1.86965L2.57723 2.57689ZM7.77904 2.57689C9.21535 4.01264 9.21535 6.34037 7.77904 7.77612L8.48601 8.48337C10.313 6.65706 10.313 3.69595 8.48601 1.86965L7.77904 2.57689ZM15.661 15.6555C17.0974 14.2197 19.4264 14.2197 20.8628 15.6555L21.5697 14.9483C19.7428 13.1221 16.7809 13.1221 14.954 14.9483L15.661 15.6555ZM20.8628 15.6555C22.2991 17.0913 22.2991 19.419 20.8628 20.8547L21.5697 21.562C23.3968 19.7357 23.3968 16.7746 21.5697 14.9483L20.8628 15.6555ZM6.79779 16.6358C3.36864 13.208 1.54173 9.06111 1.52211 5.60419L0.522131 5.60987C0.543572 9.38767 2.52056 13.7742 6.09082 17.3431L6.79779 16.6358ZM1.51949 5.55577C1.40982 4.49173 1.76264 3.39117 2.57723 2.57689L1.87026 1.86965C0.833808 2.9057 0.385543 4.30757 0.524758 5.65829L1.51949 5.55577ZM20.8628 20.8547C20.0482 21.669 18.947 22.0218 17.8824 21.9121L17.7799 22.9069C19.131 23.046 20.5333 22.598 21.5697 21.562L20.8628 20.8547ZM17.834 21.9095C14.3755 21.8899 10.2269 20.0636 6.79779 16.6358L6.09082 17.3431C9.66109 20.912 14.0493 22.8881 17.8283 22.9095L17.834 21.9095ZM7.77904 7.77612C7.20942 8.34553 6.50076 8.68861 5.76245 8.80663L5.92031 9.79409C6.85959 9.64394 7.76248 9.20661 8.48601 8.48337L7.77904 7.77612ZM9.75218 13.6826C8.30772 12.2387 7.14437 10.6634 6.28148 9.06307L5.40128 9.53766C6.3117 11.2262 7.53413 12.8793 9.04521 14.3898L9.75218 13.6826ZM14.6301 17.6711C14.7482 16.9332 15.0913 16.2249 15.661 15.6555L14.954 14.9483C14.2305 15.6715 13.7929 16.5741 13.6427 17.5132L14.6301 17.6711ZM14.3735 17.152C12.7725 16.2894 11.1966 15.1265 9.75218 13.6826L9.04521 14.3898C10.5563 15.9003 12.2101 17.1223 13.8992 18.0323L14.3735 17.152Z" fill="#FBFBFB"/>
</svg>
