<svg width="16" height="16" viewBox="0 0 16 16" fill="none" xmlns="http://www.w3.org/2000/svg">
<path fill-rule="evenodd" clip-rule="evenodd" d="M7.9476 15.7763C12.2714 15.7763 15.7765 12.2712 15.7765 7.94737C15.7765 3.62356 12.2714 0.118423 7.9476 0.118423C3.62379 0.118423 0.118652 3.62356 0.118652 7.94737C0.118652 12.2712 3.62379 15.7763 7.9476 15.7763ZM10.7823 6.76727C11.0175 6.53208 11.0175 6.15078 10.7823 5.91559C10.5471 5.68041 10.1658 5.68041 9.93063 5.91559L7.14459 8.70163L5.96449 7.52153C5.72931 7.28635 5.348 7.28635 5.11281 7.52153C4.87763 7.75671 4.87763 8.13802 5.11281 8.37321L6.71875 9.97914C6.83169 10.0921 6.98487 10.1555 7.14459 10.1555C7.30431 10.1555 7.45749 10.0921 7.57043 9.97914L10.7823 6.76727Z" fill="#64CCC5"/>
</svg>
