<svg width="36" height="31" viewBox="0 0 36 31" fill="none" xmlns="http://www.w3.org/2000/svg">
<path d="M1.01562 15.165C1.01562 10.7631 1.01562 8.56219 1.73475 6.82607C2.69359 4.51123 4.53272 2.6721 6.84755 1.71327C8.58368 0.994141 10.7846 0.994141 15.1865 0.994141H20.8548C25.2566 0.994141 27.4576 0.994141 29.1937 1.71327C31.5085 2.6721 33.3477 4.51123 34.3065 6.82607C35.0256 8.56219 35.0256 10.7631 35.0256 15.165V15.165C35.0256 19.5668 35.0256 21.7678 34.3065 23.5039C33.3477 25.8187 31.5085 27.6578 29.1937 28.6167C27.4576 29.3358 25.2566 29.3358 20.8548 29.3358H15.1865C10.7846 29.3358 8.58368 29.3358 6.84755 28.6167C4.53272 27.6578 2.69359 25.8187 1.73475 23.5039C1.01562 21.7678 1.01562 19.5668 1.01562 15.165V15.165Z" stroke="#FBFBFB" stroke-width="1.5" stroke-linejoin="round"/>
<path d="M1.01562 7.60718L7.58117 12.7135C12.0207 16.1662 14.2404 17.8926 16.776 18.2298C17.6026 18.3397 18.4401 18.3397 19.2667 18.2297C21.8023 17.8925 24.022 16.166 28.4613 12.713L35.0256 7.60718" stroke="#FBFBFB" stroke-width="1.5" stroke-linejoin="round"/>
</svg>
