<svg width="32" height="32" viewBox="0 0 32 32" fill="none" xmlns="http://www.w3.org/2000/svg">
<path d="M1.01562 5.53011H4.31451M13.3865 5.53011L30.7056 5.53011M1.01562 26.1482H4.31451M13.3865 26.1482L30.7056 26.1482M30.7056 15.8391H27.4067M18.3348 15.8391L1.01562 15.8391M22.8708 20.3751V20.3751C20.3656 20.3751 18.3348 18.3443 18.3348 15.8391V15.8391C18.3348 13.334 20.3656 11.3032 22.8708 11.3032V11.3032C25.3759 11.3032 27.4067 13.334 27.4067 15.8391V15.8391C27.4067 18.3443 25.3759 20.3751 22.8708 20.3751ZM13.3865 26.1482V26.1482C13.3865 23.643 11.3556 21.6122 8.85049 21.6122V21.6122C6.34534 21.6122 4.31451 23.643 4.31451 26.1482V26.1482C4.31451 28.6533 6.34534 30.6841 8.85049 30.6841V30.6841C11.3556 30.6841 13.3865 28.6533 13.3865 26.1482ZM8.85049 10.0661V10.0661C11.3556 10.0661 13.3865 8.03526 13.3865 5.53011V5.53011C13.3865 3.02496 11.3556 0.994141 8.85049 0.994141V0.994141C6.34534 0.994141 4.31451 3.02496 4.31451 5.53011V5.53011C4.31451 8.03526 6.34534 10.0661 8.85049 10.0661Z" stroke="#FBFBFB" stroke-width="1.5" stroke-linecap="round" stroke-linejoin="round"/>
</svg>
