<svg width="21" height="23" viewBox="0 0 21 23" fill="none" xmlns="http://www.w3.org/2000/svg">
<path d="M10.235 1C4.60511 1 0.0409651 5.53062 1.1738 11.1939C1.92734 14.961 5.68766 18.4775 8.12126 20.41C8.91665 21.0416 9.31434 21.3574 9.9319 21.4408C10.1031 21.4639 10.367 21.4639 10.5382 21.4408C11.1557 21.3574 11.5534 21.0416 12.3488 20.41C14.7825 18.4775 18.543 14.961 19.2963 11.1939C20.4288 5.53062 15.865 1 10.235 1Z" stroke="#FBFBFB" stroke-width="1.5" stroke-linejoin="round"/>
<path d="M13.6329 10.2311C13.6329 12.1078 12.1115 13.6291 10.2349 13.6291C8.35826 13.6291 6.83693 12.1078 6.83693 10.2311C6.83693 8.35449 8.35826 6.83317 10.2349 6.83317C12.1115 6.83317 13.6329 8.35449 13.6329 10.2311Z" stroke="#FBFBFB" stroke-width="1.5" stroke-linejoin="round"/>
</svg>
