<svg width="108" height="20" viewBox="0 0 108 20" fill="none" xmlns="http://www.w3.org/2000/svg">
<path d="M18.6942 8.59371L14.8011 12.3887L15.7205 17.7487C15.7605 17.9831 15.6642 18.22 15.4717 18.36C15.363 18.4393 15.2336 18.4793 15.1042 18.4793C15.0049 18.4793 14.9049 18.4556 14.8136 18.4075L9.99985 15.8768L5.18673 18.4068C4.97673 18.5181 4.7211 18.5 4.5286 18.3593C4.3361 18.2193 4.23985 17.9825 4.27985 17.7481L5.19923 12.3881L1.30548 8.59371C1.13548 8.42746 1.0736 8.17871 1.14735 7.95309C1.2211 7.72746 1.41673 7.56184 1.65235 7.52746L7.03298 6.74621L9.43923 1.86996C9.64985 1.44309 10.3499 1.44309 10.5605 1.86996L12.9667 6.74621L18.3474 7.52746C18.583 7.56184 18.7786 7.72684 18.8524 7.95309C18.9261 8.17934 18.8642 8.42684 18.6942 8.59371Z" fill="#FBFBFB"/>
<path d="M40.6942 8.59371L36.8011 12.3887L37.7205 17.7487C37.7605 17.9831 37.6642 18.22 37.4717 18.36C37.363 18.4393 37.2336 18.4793 37.1042 18.4793C37.0049 18.4793 36.9049 18.4556 36.8136 18.4075L31.9999 15.8768L27.1867 18.4068C26.9767 18.5181 26.7211 18.5 26.5286 18.3593C26.3361 18.2193 26.2399 17.9825 26.2799 17.7481L27.1992 12.3881L23.3055 8.59371C23.1355 8.42746 23.0736 8.17871 23.1474 7.95309C23.2211 7.72746 23.4167 7.56184 23.6524 7.52746L29.033 6.74621L31.4392 1.86996C31.6499 1.44309 32.3499 1.44309 32.5605 1.86996L34.9667 6.74621L40.3474 7.52746C40.583 7.56184 40.7786 7.72684 40.8524 7.95309C40.9261 8.17934 40.8642 8.42684 40.6942 8.59371Z" fill="#FBFBFB"/>
<path d="M62.6942 8.59371L58.8011 12.3887L59.7205 17.7487C59.7605 17.9831 59.6642 18.22 59.4717 18.36C59.363 18.4393 59.2336 18.4793 59.1042 18.4793C59.0049 18.4793 58.9049 18.4556 58.8136 18.4075L53.9999 15.8768L49.1867 18.4068C48.9767 18.5181 48.7211 18.5 48.5286 18.3593C48.3361 18.2193 48.2399 17.9825 48.2799 17.7481L49.1992 12.3881L45.3055 8.59371C45.1355 8.42746 45.0736 8.17871 45.1474 7.95309C45.2211 7.72746 45.4167 7.56184 45.6524 7.52746L51.033 6.74621L53.4392 1.86996C53.6499 1.44309 54.3499 1.44309 54.5605 1.86996L56.9667 6.74621L62.3474 7.52746C62.583 7.56184 62.7786 7.72684 62.8524 7.95309C62.9261 8.17934 62.8642 8.42684 62.6942 8.59371Z" fill="#FBFBFB"/>
<path d="M84.6942 8.59371L80.8011 12.3887L81.7205 17.7487C81.7605 17.9831 81.6642 18.22 81.4717 18.36C81.363 18.4393 81.2336 18.4793 81.1042 18.4793C81.0049 18.4793 80.9049 18.4556 80.8136 18.4075L75.9999 15.8768L71.1867 18.4068C70.9767 18.5181 70.7211 18.5 70.5286 18.3593C70.3361 18.2193 70.2399 17.9825 70.2799 17.7481L71.1992 12.3881L67.3055 8.59371C67.1355 8.42746 67.0736 8.17871 67.1474 7.95309C67.2211 7.72746 67.4167 7.56184 67.6524 7.52746L73.033 6.74621L75.4392 1.86996C75.6499 1.44309 76.3499 1.44309 76.5605 1.86996L78.9667 6.74621L84.3474 7.52746C84.583 7.56184 84.7786 7.72684 84.8524 7.95309C84.9261 8.17934 84.8642 8.42684 84.6942 8.59371Z" fill="#FBFBFB"/>
<path d="M106.694 8.59371L102.801 12.3887L103.72 17.7487C103.76 17.9831 103.664 18.22 103.472 18.36C103.363 18.4393 103.234 18.4793 103.104 18.4793C103.005 18.4793 102.905 18.4556 102.814 18.4075L97.9999 15.8768L93.1867 18.4068C92.9767 18.5181 92.7211 18.5 92.5286 18.3593C92.3361 18.2193 92.2399 17.9825 92.2799 17.7481L93.1992 12.3881L89.3055 8.59371C89.1355 8.42746 89.0736 8.17871 89.1474 7.95309C89.2211 7.72746 89.4167 7.56184 89.6524 7.52746L95.033 6.74621L97.4392 1.86996C97.6499 1.44309 98.3499 1.44309 98.5605 1.86996L100.967 6.74621L106.347 7.52746C106.583 7.56184 106.779 7.72684 106.852 7.95309C106.926 8.17934 106.864 8.42684 106.694 8.59371Z" fill="#FBFBFB"/>
</svg>
